<svg id="Camada_1" data-name="Camada 1" xmlns="http://www.w3.org/2000/svg" viewBox="0 0 100 100.31"><defs><style>.cls-1{fill:#111;}</style></defs><title>background</title><path class="cls-1" d="M44.38,69.88a35.53,35.53,0,0,1,.84,3.87,4.07,4.07,0,0,1-2.68,4.49,4.13,4.13,0,0,1-4.77-1,4,4,0,0,1-.83-4.79c1.49-2.83,4.5-5.48,1.28-8.79-3.71-3.83-8.66-4.74-13.75-5a12.22,12.22,0,0,0-2.27.58,4.7,4.7,0,0,1-5.38-2.86,4.26,4.26,0,0,1,1.38-5.48c1-.93,4.06-1.35,6,.17.85.65,1.32,1.81,3.74,1.91-5.66-4.93-2.39-9.54-.63-14.19C29,34.41,30.6,30,32.49,25.65c2.13-4.85,5.85-5.6,9.7-2,5.38,5.06,10.75,10.15,15.87,15.46,2.59,2.68,5.35,4.33,9.09,3.89,7.78-.92,11.55,4.6,15.44,9.72,1.71,2.25,1.32,4.83-.84,6.8s-4.61,1.73-6.9.13a11.41,11.41,0,0,1-2.43-2.22c-2.58-3.22-5-2.44-7.47.12-3.29,3.37-6.74,6.59-10,10C52.09,70.66,49.13,73,44.38,69.88Z"/><path class="cls-1" d="M82.49,76C80.6,80.28,79,84.72,77.35,89.13c-1.39,3.69-3.74,7.35-1.82,11.18H100V81.4Q96.13,77.66,92.19,74C88.34,70.36,84.62,71.11,82.49,76Z"/><path class="cls-1" d="M17.15,93.33c-3.74.44-6.5-1.21-9.09-3.89S2.73,84,0,81.4v18.91H30.49C27.22,96.17,23.54,92.57,17.15,93.33Z"/><path class="cls-1" d="M5.09,17.6c3.23-3.44,6.68-6.66,10-10C17.55,5,20,4.23,22.53,7.45A11.6,11.6,0,0,0,25,9.67c2.3,1.6,4.71,1.87,6.9-.13s2.56-4.55.85-6.8C32,1.82,31.31.9,30.6,0H.11V21.15C2,20.66,3.54,19.24,5.09,17.6Z"/><path class="cls-1" d="M78,3c-2.42-.1-2.89-1.26-3.74-1.91-2-1.52-5-1.1-6-.17a4.26,4.26,0,0,0-1.38,5.48A4.7,4.7,0,0,0,72.2,9.27a12.22,12.22,0,0,1,2.27-.58c5.09.23,10,1.14,13.75,5,3.22,3.31.21,6-1.28,8.79a4,4,0,0,0,.83,4.79,4.13,4.13,0,0,0,4.77,1,4.07,4.07,0,0,0,2.68-4.49,35.53,35.53,0,0,0-.84-3.87c2.2,1.43,4,1.69,5.62,1.27V0H75.53A9.93,9.93,0,0,0,78,3Z"/></svg>